<?xml version="1.0" standalone="no"?><!DOCTYPE svg PUBLIC "-//W3C//DTD SVG 1.1//EN" "http://www.w3.org/Graphics/SVG/1.1/DTD/svg11.dtd"><svg t="1586173920075" class="icon" viewBox="0 0 1024 1024" version="1.1" xmlns="http://www.w3.org/2000/svg" p-id="5510" xmlns:xlink="http://www.w3.org/1999/xlink" width="200" height="200"><defs><style type="text/css"></style></defs><path d="M977.454545 940.218182L674.909091 837.818182l-325.818182 93.090909-302.545454-100.072727v-558.545455l190.836363 55.854546-11.636363 44.218181L93.090909 332.8v465.454545L349.090909 884.363636l325.818182-93.090909 256 83.781818V411.927273l-146.618182-48.872728 16.290909-44.218181 176.872727 60.509091z" fill="#ffffff" p-id="5511"></path><path d="M512 777.309091l-214.109091-214.109091c-118.690909-118.690909-118.690909-309.527273 0-428.218182C416.581818 16.290909 607.418182 16.290909 726.109091 134.981818c118.690909 118.690909 118.690909 309.527273 0 428.218182L512 777.309091zM512 93.090909c-65.163636 0-130.327273 25.6-181.527273 74.472727C281.6 216.436364 256 281.6 256 349.090909s25.6 132.654545 74.472727 181.527273l181.527273 181.527273 181.527273-181.527273c48.872727-48.872727 74.472727-114.036364 74.472727-181.527273s-25.6-132.654545-74.472727-181.527273C642.327273 118.690909 577.163636 93.090909 512 93.090909z" fill="#ffffff" p-id="5512"></path><path d="M512 502.690909c-83.781818 0-153.6-69.818182-153.6-153.6s69.818182-153.6 153.6-153.6c83.781818 0 153.6 69.818182 153.6 153.6s-69.818182 153.6-153.6 153.6z m0-260.654545c-58.181818 0-107.054545 48.872727-107.054545 107.054545s48.872727 107.054545 107.054545 107.054546c58.181818 0 107.054545-48.872727 107.054545-107.054546s-48.872727-107.054545-107.054545-107.054545z" fill="#ffffff" p-id="5513"></path></svg>