<?xml version="1.0" standalone="no"?><!DOCTYPE svg PUBLIC "-//W3C//DTD SVG 1.1//EN" "http://www.w3.org/Graphics/SVG/1.1/DTD/svg11.dtd"><svg t="1584154129060" class="icon" viewBox="0 0 1024 1024" version="1.1" xmlns="http://www.w3.org/2000/svg" p-id="2157" xmlns:xlink="http://www.w3.org/1999/xlink" width="200" height="200"><defs><style type="text/css"></style></defs><path d="M738 446.2l2.1-119.2V98.9H281.8v236.3h-1.9l1.9 108.9 456.2 2.1z m118.1-110.9c57.4 0 103.9 46.5 103.9 103.9v279.2c0 57.4-46.5 103.9-103.9 103.9h-65.5l-1.2-79.5H239.8v78l1.2 1.5h-73.1C110.5 822.3 64 775.8 64 718.4V439.2c0-57.4 46.5-103.9 103.9-103.9h68.7v156.2h548.7l5.8-156.2h65zM277.5 780.5l1.3 44.2-1.1 0.4V925h470.6V822.3h0.7l-1.2-40.5-470.3-1.3z" p-id="2158"></path></svg>