<?xml version="1.0" standalone="no"?><!DOCTYPE svg PUBLIC "-//W3C//DTD SVG 1.1//EN" "http://www.w3.org/Graphics/SVG/1.1/DTD/svg11.dtd"><svg t="1583801829067" class="icon" viewBox="0 0 1024 1024" version="1.1" xmlns="http://www.w3.org/2000/svg" p-id="5264" xmlns:xlink="http://www.w3.org/1999/xlink" width="200" height="200"><defs><style type="text/css"></style></defs><path d="M127.99 127.99h768.184v63.794H127.99zM831.241 192.759h64.933V895.64h-64.933z" p-id="5265"></path><path d="M128.025 831.721h768.149v63.919H128.025zM128.025 704.223h64.056v127.498h-64.056zM127.99 191.784h64.09v128.212h-64.09zM128.692 383.79H256.05v64.419H128.692zM127.99 576.046h128.403v63.733H127.99zM589.893 321.001l-76.89 92.934-74.137-92.934h-89.642l92.383 109.791h-92.383v58.159H472.63v53.942H349.224v55.558H472.63v105.947h78.171V598.451h125.975v-55.558H550.801v-53.942h125.975v-58.159h-92.565l92.565-109.791h-86.883z m0 0M128.692 481H256.05v64.419H128.692z" p-id="5266"></path></svg>