<?xml version="1.0" standalone="no"?><!DOCTYPE svg PUBLIC "-//W3C//DTD SVG 1.1//EN" "http://www.w3.org/Graphics/SVG/1.1/DTD/svg11.dtd"><svg t="1581491662656" class="icon" viewBox="0 0 1024 1024" version="1.1" xmlns="http://www.w3.org/2000/svg" p-id="6996" xmlns:xlink="http://www.w3.org/1999/xlink" width="200" height="200"><defs><style type="text/css"></style></defs><path d="M512 993.792c-183.296 0-332.288-144.896-332.288-323.072 0-68.608 22.016-132.096 59.904-184.832l273.408-455.68 271.872 455.68c37.376 52.224 59.904 116.224 59.904 184.832-0.512 178.176-149.504 323.072-332.8 323.072z m225.792-258.56c-14.848 0-27.136 10.752-29.696 24.576-7.68 29.696-33.792 56.832-66.56 64-14.336 2.56-25.088 14.848-25.088 29.184 0 16.384 13.824 30.208 30.208 30.208 24.064 0 53.248-16.896 78.336-40.448 25.088-24.064 43.52-56.832 43.52-77.824 0-16.384-13.824-29.696-30.72-29.696z" fill="" p-id="6997"></path></svg>